<?xml version="1.0" encoding="iso-8859-1"?>
<!-- Generator: Adobe Illustrator 19.1.0, SVG Export Plug-In . SVG Version: 6.00 Build 0)  -->
<svg version="1.1" id="Capa_1" xmlns="http://www.w3.org/2000/svg" xmlns:xlink="http://www.w3.org/1999/xlink" x="0px" y="0px"
	 viewBox="0 0 471.84 471.84" style="enable-background:new 0 0 471.84 471.84;" xml:space="preserve">
<g>
	<path d="M434.515,336.49c1.29,2.31,1.27,5.12-0.05,7.41s-3.74,3.71-6.39,3.75c-0.86,0.01-1.71,0.01-2.58,0.01
		c-48.97,0-95.47-18.58-130.96-52.32l-43.63-41.48c-2.3,1.41-4.81,2.5-7.48,3.22v59.79l15.05,15.05c1.41,1.41,2.2,3.31,2.2,5.3
		v53.97c7.32,2.98,12.49,10.15,12.49,18.53c0,11.02-8.97,20-20,20c-11.02,0-20-8.98-20-20c0-8.38,5.19-15.56,12.51-18.53v-50.86
		l-9.75-9.75l-9.75,9.75v92.98c7.32,2.97,12.5,10.15,12.5,18.53c0,11.03-8.97,20-20,20c-11.02,0-20-8.97-20-20
		c0-8.37,5.18-15.55,12.5-18.53v-96.09c0-1.99,0.79-3.89,2.2-5.3l15.05-15.05v-59.79c-2.67-0.72-5.18-1.81-7.48-3.22l-43.64,41.48
		c-35.55,33.81-81.95,52.33-130.91,52.33c-0.87,0-1.75-0.01-2.63-0.02c-2.64-0.04-5.07-1.46-6.39-3.75s-1.34-5.1-0.05-7.41
		c12.06-21.56,27.97-40.31,47.27-55.72c19.32-15.42,41.12-26.78,64.8-33.77l57.74-17.05c0-0.23-0.01-0.45-0.01-0.68
		c0-10.89,6.07-20.38,15-25.28l-14.12-58.51c-11.7-48.55-4.07-98.91,21.48-141.81c0.68-1.14,1.62-2.06,2.74-2.69
		c1.11-0.63,2.38-0.98,3.7-0.98c2.65,0,5.09,1.39,6.45,3.67c17.5,29.4,26.75,63.04,26.75,97.27c0,15.02-1.78,30-5.29,44.54
		l-14.1,58.52c8.92,4.9,14.99,14.39,14.99,25.27c0,0.23-0.01,0.45-0.01,0.68l57.74,17.05
		C370.345,261.13,410.135,292.92,434.515,336.49z M414.415,332.32c-22.71-34.23-56.43-59.19-96.2-70.94l-54.56-16.1l41.22,39.19
		C334.865,312.99,373.415,329.75,414.415,332.32z M258.165,409.72c0-2.76-2.24-5-5-5c-2.75,0-5,2.24-5,5c0,2.75,2.25,5,5,5
		C255.925,414.72,258.165,412.47,258.165,409.72z M249.255,141.96c3.23-13.39,4.87-27.19,4.87-41.02c0-27.03-6.26-53.66-18.2-77.77
		c-18.29,36.78-23.05,78.47-13.34,118.79l13.34,55.29L249.255,141.96z M249.725,229.27c0-7.61-6.19-13.8-13.8-13.8
		s-13.8,6.19-13.8,13.8s6.19,13.8,13.8,13.8S249.725,236.88,249.725,229.27z M223.675,451.84c0-2.76-2.24-5-5-5c-2.75,0-5,2.24-5,5
		s2.25,5,5,5C221.435,456.84,223.675,454.6,223.675,451.84z M166.975,284.47l41.23-39.2l-54.56,16.11
		c-21.81,6.44-41.9,16.91-59.69,31.12c-14.26,11.38-26.51,24.74-36.53,39.83C98.425,329.78,136.905,313.06,166.975,284.47z"/>
	<path style="fill:#3DD0F2;" d="M318.215,261.38c39.77,11.75,73.49,36.71,96.2,70.94c-41-2.57-79.55-19.33-109.54-47.85
		l-41.22-39.19L318.215,261.38z"/>
	<path style="fill:#F48C6C;" d="M253.165,404.72c2.76,0,5,2.24,5,5c0,2.75-2.24,5-5,5c-2.75,0-5-2.25-5-5
		C248.165,406.96,250.415,404.72,253.165,404.72z"/>
	<path style="fill:#3DD0F2;" d="M254.125,100.94c0,13.83-1.64,27.63-4.87,41.02l-13.33,55.29l-13.34-55.29
		c-9.71-40.32-4.95-82.01,13.34-118.79C247.865,47.28,254.125,73.91,254.125,100.94z"/>
	<path style="fill:#F48C6C;" d="M218.675,446.84c2.76,0,5,2.24,5,5s-2.24,5-5,5c-2.75,0-5-2.24-5-5S215.925,446.84,218.675,446.84z"
		/>
	<path style="fill:#3DD0F2;" d="M208.205,245.27l-41.23,39.2c-30.07,28.59-68.55,45.31-109.55,47.86
		c10.02-15.09,22.27-28.45,36.53-39.83c17.79-14.21,37.88-24.68,59.69-31.12L208.205,245.27z"/>
</g>
<g>
</g>
<g>
</g>
<g>
</g>
<g>
</g>
<g>
</g>
<g>
</g>
<g>
</g>
<g>
</g>
<g>
</g>
<g>
</g>
<g>
</g>
<g>
</g>
<g>
</g>
<g>
</g>
<g>
</g>
</svg>
