<?xml version='1.0' encoding='iso-8859-1'?>
<!DOCTYPE svg PUBLIC '-//W3C//DTD SVG 1.1//EN' 'http://www.w3.org/Graphics/SVG/1.1/DTD/svg11.dtd'>
<svg version="1.1" xmlns="http://www.w3.org/2000/svg" viewBox="0 0 471.837 471.837" xmlns:xlink="http://www.w3.org/1999/xlink" enable-background="new 0 0 471.837 471.837">
  <path d="m434.514,336.487c-24.38-43.574-64.177-75.356-112.06-89.492l-57.747-17.049c0.005-0.226 0.017-0.451 0.017-0.678 0-10.883-6.068-20.374-14.997-25.272l14.105-58.52c3.509-14.536 5.289-29.521 5.289-44.54 0-34.233-9.251-67.87-26.752-97.272-1.353-2.272-3.801-3.664-6.444-3.664-2.643,0-5.092,1.392-6.444,3.663-25.547,42.905-33.174,93.268-21.476,141.812l14.117,58.518c-8.933,4.897-15.004,14.39-15.004,25.276 0,0.227 0.012,0.451 0.017,0.677l-57.74,17.049c-23.684,6.992-45.486,18.357-64.799,33.777-19.308,15.406-35.213,34.151-47.273,55.716-1.29,2.307-1.271,5.122 0.051,7.411 1.322,2.289 3.751,3.713 6.394,3.749 0.877,0.012 1.753,0.018 2.629,0.018 48.955,0 95.353-18.523 130.908-52.324l43.635-41.483c2.302,1.408 4.817,2.497 7.483,3.217v59.791l-15.052,15.052c-1.407,1.406-2.197,3.314-2.197,5.303v96.089c-7.318,2.975-12.497,10.153-12.497,18.526 0,11.028 8.972,20 20,20s20-8.972 20-20c0-8.376-5.182-15.555-12.503-18.529v-92.98l9.749-9.749 9.749,9.749v50.858c-7.322,2.974-12.503,10.153-12.503,18.529 0,11.028 8.972,20 20,20 11.028,0 20-8.972 20-20 0-8.374-5.178-15.551-12.497-18.526v-53.967c0-1.989-0.79-3.897-2.197-5.303l-15.052-15.052v-59.791c2.667-0.72 5.183-1.81 7.486-3.219l43.626,41.485c35.484,33.738 81.993,52.319 130.959,52.319 0.865,0 1.718,0 2.583-0.013 2.642-0.037 5.07-1.462 6.391-3.751 1.318-2.289 1.336-5.104 0.046-7.41zm-215.839,120.35c-2.757,0-5-2.243-5-5s2.243-5 5-5 5,2.243 5,5-2.243,5-5,5zm34.491-42.123c-2.757,0-5-2.243-5-5s2.243-5 5-5 5,2.243 5,5-2.243,5-5,5zm-17.249-391.548c11.943,24.113 18.205,50.739 18.205,77.771 0,13.834-1.638,27.635-4.87,41.022l-13.327,55.289-13.338-55.289c-9.719-40.324-4.959-82.01 13.33-118.793zm-68.949,261.305c-30.068,28.584-68.548,45.306-109.545,47.854 10.02-15.09 22.266-28.448 36.53-39.829 17.792-14.206 37.874-24.675 59.689-31.115l54.56-16.11-41.234,39.2zm68.953-41.399c-7.611,0-13.804-6.192-13.804-13.804 0-7.612 6.192-13.804 13.804-13.804s13.804,6.192 13.804,13.804c-0.001,7.611-6.193,13.804-13.804,13.804zm68.948,41.399l-41.221-39.197 54.558,16.107c39.775,11.743 73.495,36.707 96.203,70.934-41-2.565-79.546-19.325-109.54-47.844z"/>
</svg>
